REM DIRINDEX 1\2,1\3,1\4\5,1\4\6
REM DIRNAME "folder01","folder02","folder03","folder04","folder05","folder06"
TITLE ""
FILE "Step1_Track53.mp3" MP3
  TRACK 01 AUDIO
    TITLE "0:"
    INDEX 01 00:00:00
  TRACK 02 AUDIO
    TITLE "6:cjc164_1129"
    INDEX 01 00:00:22
  TRACK 03 AUDIO
    TITLE "0:"
    INDEX 01 00:01:70
  TRACK 04 AUDIO
    TITLE "6:cjc164_1130"
    INDEX 01 00:02:43
  TRACK 05 AUDIO
    TITLE "0:"
    INDEX 01 00:03:69
  TRACK 06 AUDIO
    TITLE "5:cjc164_1131"
    INDEX 01 00:04:24
  TRACK 07 AUDIO
    TITLE "0:"
    INDEX 01 00:06:25
  TRACK 08 AUDIO
    TITLE "6:cjc164_1132"
    INDEX 01 00:07:10
  TRACK 09 AUDIO
    TITLE "0:"
    INDEX 01 00:08:35
  TRACK 10 AUDIO
    TITLE "5:cjc164_1133"
    INDEX 01 00:08:65
  TRACK 11 AUDIO
    TITLE "0:"
    INDEX 01 00:11:26
  TRACK 12 AUDIO
    TITLE "6:cjc164_1134"
    INDEX 01 00:12:02
  TRACK 13 AUDIO
    TITLE "0:"
    INDEX 01 00:13:40
  TRACK 14 AUDIO
    TITLE "5:cjc164_1135"
    INDEX 01 00:13:66
  TRACK 15 AUDIO
    TITLE "0:"
    INDEX 01 00:16:41
  TRACK 16 AUDIO
    TITLE "6:cjc164_1136"
    INDEX 01 00:17:19
  TRACK 17 AUDIO
    TITLE "0:"
    INDEX 01 00:18:45
  TRACK 18 AUDIO
    TITLE "5:cjc164_1137"
    INDEX 01 00:18:73
  TRACK 19 AUDIO
    TITLE "0:"
    INDEX 01 00:20:70
  TRACK 20 AUDIO
    TITLE "6:cjc164_1138"
    INDEX 01 00:21:46
  TRACK 21 AUDIO
    TITLE "0:"
    INDEX 01 00:23:03
  TRACK 22 AUDIO
    TITLE "5:cjc164_1139"
    INDEX 01 00:23:37
  TRACK 23 AUDIO
    TITLE "0:"
    INDEX 01 00:25:53
  TRACK 24 AUDIO
    TITLE "6:cjc164_1140"
    INDEX 01 00:26:33
  TRACK 25 AUDIO
    TITLE "0:"
    INDEX 01 00:27:62
  TRACK 26 AUDIO
    TITLE "5:cjc164_1141"
    INDEX 01 00:28:13
  TRACK 27 AUDIO
    TITLE "0:"
    INDEX 01 00:30:25
  TRACK 28 AUDIO
    TITLE "6:cjc164_1142"
    INDEX 01 00:31:03
  TRACK 29 AUDIO
    TITLE "0:"
    INDEX 01 00:32:34
  TRACK 30 AUDIO
    TITLE "5:cjc164_1143"
    INDEX 01 00:32:59
  TRACK 31 AUDIO
    TITLE "0:"
    INDEX 01 00:34:58
  TRACK 32 AUDIO
    TITLE "6:cjc164_1144"
    INDEX 01 00:35:32
  TRACK 33 AUDIO
    TITLE "0:"
    INDEX 01 00:36:53
  TRACK 34 AUDIO
    TITLE "5:cjc164_1145"
    INDEX 01 00:37:02
  TRACK 35 AUDIO
    TITLE "0:"
    INDEX 01 00:38:56
  TRACK 36 AUDIO
    TITLE "6:cjc164_1146"
    INDEX 01 00:39:36
  TRACK 37 AUDIO
    TITLE "0:"
    INDEX 01 00:40:73
  TRACK 38 AUDIO
    TITLE "5:cjc164_1147"
    INDEX 01 00:41:23
  TRACK 39 AUDIO
    TITLE "0:"
    INDEX 01 00:42:52
  TRACK 40 AUDIO
    TITLE "6:cjc164_1148"
    INDEX 01 00:43:34
  TRACK 41 AUDIO
    TITLE "0:"
    INDEX 01 00:44:64
  TRACK 42 AUDIO
    TITLE "5:cjc164_1149"
    INDEX 01 00:45:15
  TRACK 43 AUDIO
    TITLE "0:"
    INDEX 01 00:47:18
  TRACK 44 AUDIO
    TITLE "6:cjc164_1150"
    INDEX 01 00:47:71
  TRACK 45 AUDIO
    TITLE "0:"
    INDEX 01 00:49:36
  TRACK 46 AUDIO
    TITLE "5:cjc164_1151"
    INDEX 01 00:49:64
  TRACK 47 AUDIO
    TITLE "0:"
    INDEX 01 00:52:35
  TRACK 48 AUDIO
    TITLE "6:cjc164_1152"
    INDEX 01 00:53:12
  TRACK 49 AUDIO
    TITLE "0:"
    INDEX 01 00:54:39
  TRACK 50 AUDIO
    TITLE "5:cjc164_1153"
    INDEX 01 00:54:69
  TRACK 51 AUDIO
    TITLE "0:"
    INDEX 01 00:57:04
  TRACK 52 AUDIO
    TITLE "6:cjc164_1154"
    INDEX 01 00:57:55
  TRACK 53 AUDIO
    TITLE "0:"
    INDEX 01 00:59:31
  TRACK 54 AUDIO
    TITLE "5:cjc164_1155"
    INDEX 01 00:59:62
  TRACK 55 AUDIO
    TITLE "0:"
    INDEX 01 01:01:16
  TRACK 56 AUDIO
    TITLE "6:cjc164_1156"
    INDEX 01 01:01:71
  TRACK 57 AUDIO
    TITLE "0:"
    INDEX 01 01:03:48
  TRACK 58 AUDIO
    TITLE "5:cjc164_1157"
    INDEX 01 01:04:01
  TRACK 59 AUDIO
    TITLE "0:"
    INDEX 01 01:06:29
  TRACK 60 AUDIO
    TITLE "6:cjc164_1158"
    INDEX 01 01:07:05
  TRACK 61 AUDIO
    TITLE "0:"
    INDEX 01 01:08:55
  TRACK 62 AUDIO
    TITLE "5:cjc164_1159"
    INDEX 01 01:09:10
  TRACK 63 AUDIO
    TITLE "0:"
    INDEX 01 01:10:42
  TRACK 64 AUDIO
    TITLE "6:cjc164_1160"
    INDEX 01 01:11:14
  TRACK 65 AUDIO
    TITLE "0:"
    INDEX 01 01:12:67
  TRACK 66 AUDIO
    TITLE "5:cjc164_1161"
    INDEX 01 01:13:13
  TRACK 67 AUDIO
    TITLE "0:"
    INDEX 01 01:15:24
  TRACK 68 AUDIO
    TITLE "6:cjc164_1162"
    INDEX 01 01:15:71
  TRACK 69 AUDIO
    TITLE "0:"
    INDEX 01 01:17:50
  TRACK 70 AUDIO
    TITLE "5:cjc164_1163"
    INDEX 01 01:18:08
  TRACK 71 AUDIO
    TITLE "0:"
    INDEX 01 01:20:01
  TRACK 72 AUDIO
    TITLE "6:cjc164_1164"
    INDEX 01 01:20:50
  TRACK 73 AUDIO
    TITLE "0:"
    INDEX 01 01:22:22
  TRACK 74 AUDIO
    TITLE "5:cjc164_1165"
    INDEX 01 01:22:49
  TRACK 75 AUDIO
    TITLE "0:"
    INDEX 01 01:25:01
  TRACK 76 AUDIO
    TITLE "6:cjc164_1166"
    INDEX 01 01:25:52
  TRACK 77 AUDIO
    TITLE "0:"
    INDEX 01 01:27:25
  TRACK 78 AUDIO
    TITLE "5:cjc164_1167"
    INDEX 01 01:27:54
  TRACK 79 AUDIO
    TITLE "0:"
    INDEX 01 01:29:53
  TRACK 80 AUDIO
    TITLE "6:cjc164_1168"
    INDEX 01 01:30:27
  TRACK 81 AUDIO
    TITLE "0:"
    INDEX 01 01:31:60
  TRACK 82 AUDIO
    TITLE "5:cjc164_1169"
    INDEX 01 01:32:16
  TRACK 83 AUDIO
    TITLE "0:"
    INDEX 01 01:34:33
  TRACK 84 AUDIO
    TITLE "6:cjc164_1170"
    INDEX 01 01:35:11
  TRACK 85 AUDIO
    TITLE "0:"
    INDEX 01 01:36:59
  TRACK 86 AUDIO
    TITLE "5:cjc164_1171"
    INDEX 01 01:37:08
  TRACK 87 AUDIO
    TITLE "0:"
    INDEX 01 01:39:36
  TRACK 88 AUDIO
    TITLE "6:cjc164_1172"
    INDEX 01 01:40:12
  TRACK 89 AUDIO
    TITLE "0:"
    INDEX 01 01:41:66
  TRACK 90 AUDIO
    TITLE "5:cjc164_1173"
    INDEX 01 01:42:23
  TRACK 91 AUDIO
    TITLE "0:"
    INDEX 01 01:44:37
  TRACK 92 AUDIO
    TITLE "6:cjc164_1174"
    INDEX 01 01:45:15
  TRACK 93 AUDIO
    TITLE "0:"
    INDEX 01 01:46:69
  TRACK 94 AUDIO
    TITLE "5:cjc164_1175"
    INDEX 01 01:47:22
  TRACK 95 AUDIO
    TITLE "0:"
    INDEX 01 01:49:23
  TRACK 96 AUDIO
    TITLE "6:cjc164_1176"
    INDEX 01 01:50:03
  TRACK 97 AUDIO
    TITLE "0:"
    INDEX 01 01:51:59
  TRACK 98 AUDIO
    TITLE "5:cjc164_1177"
    INDEX 01 01:52:15
  TRACK 99 AUDIO
    TITLE "0:"
    INDEX 01 01:54:04
  TRACK 100 AUDIO
    TITLE "6:cjc164_1178"
    INDEX 01 01:54:59
  TRACK 101 AUDIO
    TITLE "0:"
    INDEX 01 01:56:33
  TRACK 102 AUDIO
    TITLE "5:cjc164_1179"
    INDEX 01 01:56:72
  TRACK 103 AUDIO
    TITLE "0:"
    INDEX 01 01:59:11
  TRACK 104 AUDIO
    TITLE "6:cjc164_1180"
    INDEX 01 01:59:72
  TRACK 105 AUDIO
    TITLE "0:"
    INDEX 01 02:01:57
  TRACK 106 AUDIO
    TITLE "5:cjc164_1181"
    INDEX 01 02:02:12
  TRACK 107 AUDIO
    TITLE "0:"
    INDEX 01 02:04:09
  TRACK 108 AUDIO
    TITLE "6:cjc164_1182"
    INDEX 01 02:04:65
  TRACK 109 AUDIO
    TITLE "0:"
    INDEX 01 02:06:43
  TRACK 110 AUDIO
    TITLE "5:cjc164_1183"
    INDEX 01 02:06:64
  TRACK 111 AUDIO
    TITLE "0:"
    INDEX 01 02:08:69
  TRACK 112 AUDIO
    TITLE "6:cjc164_1184"
    INDEX 01 02:09:43
  TRACK 113 AUDIO
    TITLE "0:"
    INDEX 01 02:11:09
  TRACK 114 AUDIO
    TITLE "5:cjc164_1185"
    INDEX 01 02:11:42
  TRACK 115 AUDIO
    TITLE "0:"
    INDEX 01 02:14:09
  TRACK 116 AUDIO
    TITLE "6:cjc164_1186"
    INDEX 01 02:14:66
  TRACK 117 AUDIO
    TITLE "0:"
    INDEX 01 02:16:47
  TRACK 118 AUDIO
    TITLE "5:cjc164_1187"
    INDEX 01 02:17:05
  TRACK 119 AUDIO
    TITLE "0:"
    INDEX 01 02:19:41
  TRACK 120 AUDIO
    TITLE "6:cjc164_1188"
    INDEX 01 02:20:12
  TRACK 121 AUDIO
    TITLE "0:"
    INDEX 01 02:21:44
  TRACK 122 AUDIO
    TITLE "5:cjc164_1189"
    INDEX 01 02:22:01
  TRACK 123 AUDIO
    TITLE "0:"
    INDEX 01 02:25:03
  TRACK 124 AUDIO
    TITLE "6:cjc164_1190"
    INDEX 01 02:25:56
  TRACK 125 AUDIO
    TITLE "0:"
    INDEX 01 02:27:29
  TRACK 126 AUDIO
    TITLE "5:cjc164_1191"
    INDEX 01 02:27:66
  TRACK 127 AUDIO
    TITLE "0:"
    INDEX 01 02:29:67
  TRACK 128 AUDIO
    TITLE "6:cjc164_1192"
    INDEX 01 02:30:51
  TRACK 129 AUDIO
    TITLE "0:"
    INDEX 01 02:32:38
  TRACK 130 AUDIO
    TITLE "5:cjc164_1193"
    INDEX 01 02:32:68
  TRACK 131 AUDIO
    TITLE "0:"
    INDEX 01 02:35:25
  TRACK 132 AUDIO
    TITLE "6:cjc164_1194"
    INDEX 01 02:36:05
  TRACK 133 AUDIO
    TITLE "0:"
    INDEX 01 02:37:61
  TRACK 134 AUDIO
    TITLE "5:cjc164_1195"
    INDEX 01 02:38:17
  TRACK 135 AUDIO
    TITLE "0:"
    INDEX 01 02:40:46
  TRACK 136 AUDIO
    TITLE "6:cjc164_1196"
    INDEX 01 02:41:25
  TRACK 137 AUDIO
    TITLE "0:"
    INDEX 01 02:43:07
  TRACK 138 AUDIO
    TITLE "5:cjc164_1197"
    INDEX 01 02:43:42
  TRACK 139 AUDIO
    TITLE "0:"
    INDEX 01 02:46:07
  TRACK 140 AUDIO
    TITLE "6:cjc164_1198"
    INDEX 01 02:46:64
  TRACK 141 AUDIO
    TITLE "0:"
    INDEX 01 02:48:39
  TRACK 142 AUDIO
    TITLE "5:cjc164_1199"
    INDEX 01 02:49:03
  TRACK 143 AUDIO
    TITLE "0:"
    INDEX 01 02:53:09
  TRACK 144 AUDIO
    TITLE "6:cjc164_1200"
    INDEX 01 02:53:62
  TRACK 145 AUDIO
    TITLE "0:"
    INDEX 01 02:55:41
  TRACK 146 AUDIO
    TITLE "5:cjc164_1201"
    INDEX 01 02:55:61
  TRACK 147 AUDIO
    TITLE "0:"
    INDEX 01 02:59:12
  TRACK 148 AUDIO
    TITLE "6:cjc164_1202"
    INDEX 01 02:59:61
  TRACK 149 AUDIO
    TITLE "0:"
    INDEX 01 03:01:42
  TRACK 150 AUDIO
    TITLE "5:cjc164_1203"
    INDEX 01 03:02:00
  TRACK 151 AUDIO
    TITLE "0:"
    INDEX 01 03:03:45
  TRACK 152 AUDIO
    TITLE "6:cjc164_1204"
    INDEX 01 03:04:24
  TRACK 153 AUDIO
    TITLE "0:"
    INDEX 01 03:05:71
  TRACK 154 AUDIO
    TITLE "5:cjc164_1205"
    INDEX 01 03:06:19
  TRACK 155 AUDIO
    TITLE "0:"
    INDEX 01 03:08:46
  TRACK 156 AUDIO
    TITLE "6:cjc164_1206"
    INDEX 01 03:09:26
  TRACK 157 AUDIO
    TITLE "0:"
    INDEX 01 03:11:05
  TRACK 158 AUDIO
    TITLE "5:cjc164_1207"
    INDEX 01 03:11:40
  TRACK 159 AUDIO
    TITLE "0:"
    INDEX 01 03:12:59
  TRACK 160 AUDIO
    TITLE "6:cjc164_1208"
    INDEX 01 03:13:29
  TRACK 161 AUDIO
    TITLE "0:"
    INDEX 01 03:14:62
  TRACK 162 AUDIO
    TITLE "5:cjc164_1209"
    INDEX 01 03:15:16
  TRACK 163 AUDIO
    TITLE "0:"
    INDEX 01 03:17:15
  TRACK 164 AUDIO
    TITLE "6:cjc164_1210"
    INDEX 01 03:17:68
  TRACK 165 AUDIO
    TITLE "0:"
    INDEX 01 03:19:46
  TRACK 166 AUDIO
    TITLE "5:cjc164_1211"
    INDEX 01 03:20:02
  TRACK 167 AUDIO
    TITLE "0:"
    INDEX 01 03:21:35
  TRACK 168 AUDIO
    TITLE "6:cjc164_1212"
    INDEX 01 03:22:15
  TRACK 169 AUDIO
    TITLE "0:"
    INDEX 01 03:23:73
  TRACK 170 AUDIO
    TITLE "5:cjc164_1213"
    INDEX 01 03:24:29
  TRACK 171 AUDIO
    TITLE "0:"
    INDEX 01 03:26:14
  TRACK 172 AUDIO
    TITLE "6:cjc164_1214"
    INDEX 01 03:26:71
  TRACK 173 AUDIO
    TITLE "0:"
    INDEX 01 03:28:48
  TRACK 174 AUDIO
    TITLE "5:cjc164_1215"
    INDEX 01 03:29:05
  TRACK 175 AUDIO
    TITLE "0:"
    INDEX 01 03:30:40
  TRACK 176 AUDIO
    TITLE "6:cjc164_1216"
    INDEX 01 03:31:23
  TRACK 177 AUDIO
    TITLE "0:"
    INDEX 01 03:33:05
  TRACK 178 AUDIO
    TITLE "5:cjc164_1217"
    INDEX 01 03:33:38
  TRACK 179 AUDIO
    TITLE "0:"
    INDEX 01 03:35:15
  TRACK 180 AUDIO
    TITLE "6:cjc164_1218"
    INDEX 01 03:35:70
  TRACK 181 AUDIO
    TITLE "0:"
    INDEX 01 03:37:57
  TRACK 182 AUDIO
    TITLE "5:cjc164_1219"
    INDEX 01 03:38:19
  TRACK 183 AUDIO
    TITLE "0:"
    INDEX 01 03:40:36
  TRACK 184 AUDIO
    TITLE "6:cjc164_1220"
    INDEX 01 03:41:20
  TRACK 185 AUDIO
    TITLE "0:"
    INDEX 01 03:43:01
  TRACK 186 AUDIO
    TITLE "6:cjc164_1221"
    INDEX 01 03:43:25
  TRACK 187 AUDIO
    TITLE "0:"
    INDEX 01 03:44:18
  TRACK 188 AUDIO
    TITLE "5:cjc164_1222"
    INDEX 01 03:44:36
  TRACK 189 AUDIO
    TITLE "0:"
    INDEX 01 03:46:39
  TRACK 190 AUDIO
    TITLE "6:cjc164_1223"
    INDEX 01 03:46:66
  TRACK 191 AUDIO
    TITLE "0:"
    INDEX 01 03:47:64
  TRACK 192 AUDIO
    TITLE "5:cjc164_1224"
    INDEX 01 03:47:71
  TRACK 193 AUDIO
    TITLE "0:"
    INDEX 01 03:51:20
  TRACK 194 AUDIO
    TITLE "6:cjc164_1225"
    INDEX 01 03:52:00
  TRACK 195 AUDIO
    TITLE "0:"
    INDEX 01 03:53:60
  TRACK 196 AUDIO
    TITLE "5:cjc164_1226"
    INDEX 01 03:54:15
  TRACK 197 AUDIO
    TITLE "0:"
    INDEX 01 03:55:69
  TRACK 198 AUDIO
    TITLE "6:cjc164_1227"
    INDEX 01 03:56:51
  TRACK 199 AUDIO
    TITLE "0:"
    INDEX 01 03:58:16
  TRACK 200 AUDIO
    TITLE "5:cjc164_1228"
    INDEX 01 03:58:50
  TRACK 201 AUDIO
    TITLE "0:"
    INDEX 01 04:00:31
  TRACK 202 AUDIO
    TITLE "6:cjc164_1229"
    INDEX 01 04:01:09
  TRACK 203 AUDIO
    TITLE "0:"
    INDEX 01 04:02:59
  TRACK 204 AUDIO
    TITLE "5:cjc164_1230"
    INDEX 01 04:03:23
  TRACK 205 AUDIO
    TITLE "0:"
    INDEX 01 04:05:50
  TRACK 206 AUDIO
    TITLE "6:cjc164_1231"
    INDEX 01 04:06:33
  TRACK 207 AUDIO
    TITLE "0:"
    INDEX 01 04:07:70
  TRACK 208 AUDIO
    TITLE "5:cjc164_1232"
    INDEX 01 04:08:26
  TRACK 209 AUDIO
    TITLE "0:"
    INDEX 01 04:10:47
  TRACK 210 AUDIO
    TITLE "6:cjc164_1233"
    INDEX 01 04:11:21
  TRACK 211 AUDIO
    TITLE "0:"
    INDEX 01 04:12:71
  TRACK 212 AUDIO
    TITLE "6:cjc164_1234"
    INDEX 01 04:13:10
  TRACK 213 AUDIO
    TITLE "0:"
    INDEX 01 04:14:07
  TRACK 214 AUDIO
    TITLE "5:cjc164_1235"
    INDEX 01 04:14:25
  TRACK 215 AUDIO
    TITLE "0:"
    INDEX 01 04:17:65
  TRACK 216 AUDIO
    TITLE "6:cjc164_1236"
    INDEX 01 04:18:15
  TRACK 217 AUDIO
    TITLE "0:"
    INDEX 01 04:19:16
  TRACK 218 AUDIO
    TITLE "5:cjc164_1237"
    INDEX 01 04:19:30
  TRACK 219 AUDIO
    TITLE "0:"
    INDEX 01 04:21:29
  TRACK 220 AUDIO
    TITLE "6:cjc164_1238"
    INDEX 01 04:22:11
  TRACK 221 AUDIO
    TITLE "0:"
    INDEX 01 04:23:71
  TRACK 222 AUDIO
    TITLE "6:cjc164_1239"
    INDEX 01 04:24:25
  TRACK 223 AUDIO
    TITLE "0:"
    INDEX 01 04:25:21
  TRACK 224 AUDIO
    TITLE "5:cjc164_1240"
    INDEX 01 04:25:35
  TRACK 225 AUDIO
    TITLE "0:"
    INDEX 01 04:27:57
  TRACK 226 AUDIO
    TITLE "6:cjc164_1241"
    INDEX 01 04:28:43
  TRACK 227 AUDIO
    TITLE "0:"
    INDEX 01 04:29:42
  TRACK 228 AUDIO
    TITLE "5:cjc164_1242"
    INDEX 01 04:29:56
  TRACK 229 AUDIO
    TITLE "0:"
    INDEX 01 04:31:35
